# xmcd
#
# Track frame offsets:
#	150
#	16257
#	40456
#	51309
#	67896
#	88835
#	107634
#	125529
#	143618
#	164826
#
# Disc length: 2454 seconds
#
# Revision: 0
# Processed by: cddbd v1.4PL0 Copyright (c) Steve Scherf et al.
# Submitted via: EasyCDDAExtractor 4.6.0.1
#
DISCID=8a09940a
DTITLE=Stevie Ray Vaughan - Greatest Hits
DYEAR=1900
DGENRE=Blues
TTITLE0=Taxman
TTITLE1=Texas Flood
TTITLE2=The House Is Rockin'
TTITLE3=Pride And Joy
TTITLE4=Tightrope
TTITLE5=Crossfire
TTITLE6=Change It
TTITLE7=Cold Shot
TTITLE8=Couldn't Stand The Weather
TTITLE9=Life Without You
EXTD=
EXTT0=
EXTT1=
EXTT2=
EXTT3=
EXTT4=
EXTT5=
EXTT6=
EXTT7=
EXTT8=
EXTT9=
PLAYORDER=
